<svg xmlns="http://www.w3.org/2000/svg" xmlns:xlink="http://www.w3.org/1999/xlink" width="500" zoomAndPan="magnify" viewBox="0 0 375 374.999991" height="500" preserveAspectRatio="xMidYMid meet" version="1.0"><defs><clipPath id="3234bf1b10"><path d="M 11.757812 362 L 363.507812 362 L 363.507812 371 L 11.757812 371 Z M 11.757812 362 " clip-rule="nonzero"/></clipPath></defs><path fill="#3b82f6" d="M 88.472656 243.53125 L 88.472656 337.511719 L 119.160156 337.511719 L 119.160156 265.898438 Z M 88.472656 243.53125 " fill-opacity="1" fill-rule="evenodd"/><path fill="#3b82f6" d="M 225.546875 163.773438 L 236.140625 170.238281 L 236.140625 130.777344 L 225.546875 137.277344 Z M 225.546875 163.773438 " fill-opacity="1" fill-rule="evenodd"/><path fill="#3b82f6" d="M 243.027344 126.585938 L 243.027344 174.433594 L 253.613281 180.898438 L 253.613281 120.082031 Z M 243.027344 126.585938 " fill-opacity="1" fill-rule="evenodd"/><path fill="#3b82f6" d="M 260.464844 115.890625 L 260.464844 185.089844 L 271.054688 191.558594 L 271.054688 109.390625 Z M 260.464844 115.890625 " fill-opacity="1" fill-rule="evenodd"/><path fill="#3b82f6" d="M 101.648438 244.125 L 101.648438 39.339844 L 91.09375 45.851562 L 91.09375 236.609375 Z M 101.648438 244.125 " fill-opacity="1" fill-rule="evenodd"/><path fill="#3b82f6" d="M 108.53125 35.152344 L 108.53125 248.984375 L 119.160156 256.566406 L 119.160156 28.605469 Z M 108.53125 35.152344 " fill-opacity="1" fill-rule="evenodd"/><path fill="#3b82f6" d="M 125.976562 24.460938 L 125.976562 337.511719 L 136.5625 337.511719 L 136.5625 17.910156 Z M 125.976562 24.460938 " fill-opacity="1" fill-rule="evenodd"/><path fill="#3b82f6" d="M 143.382812 13.714844 L 143.382812 337.511719 L 153.96875 337.511719 L 153.96875 7.210938 Z M 143.382812 13.714844 " fill-opacity="1" fill-rule="evenodd"/><path fill="#3b82f6" d="M 160.820312 5.054688 L 160.820312 337.511719 L 171.378906 337.511719 L 171.378906 11.5625 Z M 160.820312 5.054688 " fill-opacity="1" fill-rule="evenodd"/><path fill="#3b82f6" d="M 178.261719 15.75 L 178.261719 186.523438 L 188.886719 178.976562 L 188.886719 22.300781 Z M 178.261719 15.75 " fill-opacity="1" fill-rule="evenodd"/><path fill="#3b82f6" d="M 195.699219 26.527344 L 195.699219 174.152344 L 206.292969 166.566406 L 206.292969 33.039062 Z M 195.699219 26.527344 " fill-opacity="1" fill-rule="evenodd"/><path fill="#3b82f6" d="M 80.820312 243.460938 L 51.566406 260.339844 L 51.566406 274.707031 L 80.820312 257.789062 Z M 80.820312 243.460938 " fill-opacity="1" fill-rule="evenodd"/><path fill="#3b82f6" d="M 80.820312 272.1875 L 51.566406 289 L 51.566406 303.402344 L 80.820312 286.484375 Z M 80.820312 272.1875 " fill-opacity="1" fill-rule="evenodd"/><path fill="#3b82f6" d="M 80.820312 300.847656 L 51.566406 317.730469 L 51.566406 332.09375 L 80.820312 315.214844 Z M 80.820312 300.847656 " fill-opacity="1" fill-rule="evenodd"/><path fill="#3b82f6" d="M 80.820312 329.542969 L 67.082031 337.511719 L 80.820312 337.511719 Z M 80.820312 329.542969 " fill-opacity="1" fill-rule="evenodd"/><path fill="#3b82f6" d="M 217.476562 169.328125 L 178.261719 197.082031 L 178.261719 337.511719 L 217.476562 337.511719 Z M 217.476562 169.328125 " fill-opacity="1" fill-rule="evenodd"/><path fill="#3b82f6" d="M 225.546875 191.769531 L 272.242188 220.320312 L 272.242188 204.734375 L 225.546875 176.214844 Z M 225.546875 191.769531 " fill-opacity="1" fill-rule="evenodd"/><path fill="#3b82f6" d="M 272.242188 235.839844 L 225.546875 207.320312 L 225.546875 222.875 L 272.242188 251.429688 Z M 272.242188 235.839844 " fill-opacity="1" fill-rule="evenodd"/><path fill="#3b82f6" d="M 272.242188 266.980469 L 225.546875 238.425781 L 225.546875 253.945312 L 272.242188 282.5 Z M 272.242188 266.980469 " fill-opacity="1" fill-rule="evenodd"/><path fill="#3b82f6" d="M 272.242188 298.050781 L 225.546875 269.496094 L 225.546875 285.015625 L 272.242188 313.570312 Z M 272.242188 298.050781 " fill-opacity="1" fill-rule="evenodd"/><path fill="#3b82f6" d="M 272.242188 329.125 L 225.546875 300.605469 L 225.546875 316.191406 L 260.464844 337.511719 L 272.242188 337.511719 Z M 272.242188 329.125 " fill-opacity="1" fill-rule="evenodd"/><path fill="#3b82f6" d="M 234.988281 337.511719 L 225.546875 331.710938 L 225.546875 337.511719 Z M 234.988281 337.511719 " fill-opacity="1" fill-rule="evenodd"/><path fill="#3b82f6" d="M 323.34375 337.511719 L 323.34375 146.925781 L 277.207031 113.339844 L 277.207031 337.511719 Z M 323.34375 337.511719 " fill-opacity="1" fill-rule="evenodd"/><path fill="#3b82f6" d="M 26.367188 347.332031 L 348.542969 347.332031 L 348.542969 354.8125 L 26.367188 354.8125 Z M 26.367188 347.332031 " fill-opacity="1" fill-rule="evenodd"/><g clip-path="url(#3234bf1b10)"><path fill="#3b82f6" d="M 11.757812 362.710938 L 363.1875 362.710938 L 363.1875 370.15625 L 11.757812 370.15625 Z M 11.757812 362.710938 " fill-opacity="1" fill-rule="evenodd"/></g></svg>